<?xml version="1.0" encoding="UTF-8" standalone="no"?>
<!-- Created with Inkscape (http://www.inkscape.org/) -->

<svg
   xmlns:dc="http://purl.org/dc/elements/1.1/"
   xmlns:cc="http://creativecommons.org/ns#"
   xmlns:rdf="http://www.w3.org/1999/02/22-rdf-syntax-ns#"
   xmlns:svg="http://www.w3.org/2000/svg"
   xmlns="http://www.w3.org/2000/svg"
   xmlns:sodipodi="http://sodipodi.sourceforge.net/DTD/sodipodi-0.dtd"
   xmlns:inkscape="http://www.inkscape.org/namespaces/inkscape"
   id="svg3039"
   version="1.1"
   inkscape:version="0.48.4 r9939"
   width="500"
   height="150"
   sodipodi:docname="shruggie.svg">
  <metadata
     id="metadata3045">
    <rdf:RDF>
      <cc:Work
         rdf:about="">
        <dc:format>image/svg+xml</dc:format>
        <dc:type
           rdf:resource="http://purl.org/dc/dcmitype/StillImage" />
        <dc:title></dc:title>
      </cc:Work>
    </rdf:RDF>
  </metadata>
  <defs
     id="defs3043" />
  <sodipodi:namedview
     pagecolor="#ffffff"
     bordercolor="#666666"
     borderopacity="1"
     objecttolerance="10"
     gridtolerance="10"
     guidetolerance="10"
     inkscape:pageopacity="0"
     inkscape:pageshadow="2"
     inkscape:window-width="1806"
     inkscape:window-height="2117"
     id="namedview3041"
     showgrid="false"
     inkscape:zoom="2.3035343"
     inkscape:cx="262.30669"
     inkscape:cy="70.354504"
     inkscape:window-x="2941"
     inkscape:window-y="140"
     inkscape:window-maximized="0"
     inkscape:current-layer="svg3039" />
  <path
     style="fill:#000000"
     d="m 175.34534,123.42589 c -4.55756,-6.69926 -11.14147,-22.18891 -13.13458,-30.901036 -2.27724,-9.95406 -2.27614,-26.478931 0.002,-35.466359 1.97197,-7.77838 7.6394,-20.922902 12.1734,-28.233877 3.2098,-5.175059 3.25876,-5.205833 8.28393,-5.205833 2.78026,0 5.055,0.288179 5.055,0.640393 0,0.352207 -0.8362,2.068687 -1.85827,3.814395 -2.99535,5.116126 -7.60139,18.050856 -9.29192,26.09353 -2.13203,10.143195 -2.14281,32.29673 -0.0205,42.262473 1.78776,8.395054 6.26397,20.805654 9.83022,27.254994 l 2.38142,4.30662 -5.15738,0 c -5.01377,0 -5.24382,-0.12709 -8.26315,-4.5653 z m 132.53119,3.80531 c 0.17597,-0.41799 1.90544,-4.17997 3.8432,-8.35992 7.5029,-16.18435 10.02061,-29.676535 9.15409,-49.055783 -0.665,-14.871804 -3.09601,-25.251843 -8.74273,-37.33012 l -4.14525,-8.866591 5.09887,0 c 4.91958,0 5.19727,0.151422 7.89824,4.306627 15.45034,23.769046 18.6192,51.572566 8.8217,77.401567 -3.27236,8.6269 -5.55438,12.99179 -9.86245,18.86426 -2.56169,3.49192 -3.1767,3.79995 -7.58665,3.79995 -2.63947,0 -4.65502,-0.342 -4.47902,-0.75999 z m -210.385133,-10.89323 0,-2.5333 28.797953,0 28.79797,0 0,2.5333 0,2.53331 -28.79797,0 -28.797953,0 0,-2.53331 z m 243.822763,0 0,-2.5333 28.79798,0 28.79795,0 0,2.5333 0,2.53331 -28.79795,0 -28.79798,0 0,-2.53331 z m -112.63126,-9.93134 -3.42103,-5.18136 6.39079,-2.87795 c 24.53841,-11.050342 39.96868,-31.419574 47.29103,-62.428067 l 2.24002,-9.486001 4.28105,0.619415 c 2.35455,0.340678 4.90666,0.619416 5.67131,0.619416 1.79899,0 1.05584,4.949563 -2.81389,18.741181 -8.43359,30.057212 -25.342,51.30488 -49.44238,62.130926 l -6.77588,3.04378 -3.42102,-5.18134 z M 89.779549,98.85813 C 88.62995,95.65349 82.591695,78.439648 76.361206,60.605132 70.130714,42.770627 64.563602,26.903077 63.98984,25.343926 l -1.0432,-2.834817 5.842528,0.301508 5.842528,0.301509 11.931026,33.946369 c 6.562065,18.670501 12.992122,37.024338 14.289008,40.786311 l 2.35798,6.839934 -5.669983,0 -5.669994,0 -2.090184,-5.82661 z m 304.330881,5.17894 c 0,-0.6056 10.36024,-30.517924 22.85186,-65.978406 l 5.44366,-15.453199 5.60123,0 c 4.15514,0 5.52111,0.345193 5.29088,1.337051 -0.17071,0.735371 -6.57393,19.200336 -14.22939,41.033242 l -13.91902,39.696182 -5.51961,0.007 c -3.03577,0.003 -5.51961,-0.28504 -5.51961,-0.64127 z M 219.98945,60.857434 c -1.52517,-2.925404 -5.08892,-9.462528 -7.91944,-14.526941 -2.83049,-5.064406 -5.14637,-9.467036 -5.14637,-9.783622 0,-0.55612 8.07042,-5.834811 8.92063,-5.834811 0.96781,0 16.03762,27.558475 16.03762,29.328344 0,0.834372 -7.54205,6.140063 -8.72372,6.136985 -0.21761,-5.72e-4 -1.64352,-2.39455 -3.16872,-5.319955 z m 24.76886,-8.026468 c -2.2763,-4.743693 -8.75487,-16.451097 -12.59803,-22.765854 -1.23668,-2.032001 -1.02444,-2.358112 3.40827,-5.237295 l 4.72705,-3.070363 7.20154,12.837229 c 10.21033,18.200639 9.73147,16.899589 6.92442,18.813597 -7.8826,5.374822 -6.77534,5.440976 -9.66325,-0.577314 z M 17.817011,29.698732 l 0,-4.053298 17.65792,0 17.657918,0 0.366176,4.053298 0.366179,4.053298 -18.024098,0 -18.024095,0 0,-4.053298 z m 425.830299,0.253941 0.1003,-3.80057 17.89836,-0.275691 17.89836,-0.275691 0,4.07565 0,4.075659 -17.99872,6.11e-4 -17.99873,6.03e-4 0.1003,-3.800571 z"
     id="path3049"
     inkscape:connector-curvature="0" />
</svg>
