<?xml version="1.0" encoding="UTF-8" standalone="no"?>
<!-- Created with Inkscape (http://www.inkscape.org/) -->

<svg
   xmlns:dc="http://purl.org/dc/elements/1.1/"
   xmlns:cc="http://creativecommons.org/ns#"
   xmlns:rdf="http://www.w3.org/1999/02/22-rdf-syntax-ns#"
   xmlns:svg="http://www.w3.org/2000/svg"
   xmlns="http://www.w3.org/2000/svg"
   xmlns:sodipodi="http://sodipodi.sourceforge.net/DTD/sodipodi-0.dtd"
   xmlns:inkscape="http://www.inkscape.org/namespaces/inkscape"
   id="svg3039"
   version="1.1"
   inkscape:version="0.48.4 r9939"
   width="481"
   height="105"
   sodipodi:docname="shruggie.svg">
  <metadata
     id="metadata3045">
    <rdf:RDF>
      <cc:Work
         rdf:about="">
        <dc:format>image/svg+xml</dc:format>
        <dc:type
           rdf:resource="http://purl.org/dc/dcmitype/StillImage" />
        <dc:title></dc:title>
      </cc:Work>
    </rdf:RDF>
  </metadata>
  <defs
     id="defs3043" />
  <sodipodi:namedview
     pagecolor="#ffffff"
     bordercolor="#666666"
     borderopacity="1"
     objecttolerance="10"
     gridtolerance="10"
     guidetolerance="10"
     inkscape:pageopacity="0"
     inkscape:pageshadow="2"
     inkscape:window-width="1806"
     inkscape:window-height="2117"
     id="namedview3041"
     showgrid="false"
     inkscape:zoom="3.2576895"
     inkscape:cx="243.34556"
     inkscape:cy="103.37245"
     inkscape:window-x="2941"
     inkscape:window-y="140"
     inkscape:window-maximized="0"
     inkscape:current-layer="svg3039" />
  <path
     style="fill:#000000"
     d="m 151.27963,96.086439 c -4.0879,-6.008897 -9.99334,-19.902324 -11.78106,-27.716671 -2.04256,-8.928286 -2.04158,-23.750264 0.002,-31.811535 1.76876,-6.976815 6.85215,-18.766789 10.91892,-25.324365 2.87904,-4.6417674 2.92295,-4.6693695 7.43027,-4.6693695 2.49375,0 4.53409,0.2584813 4.53409,0.5743997 0,0.3159115 -0.75004,1.8555078 -1.66678,3.4213198 -2.68668,4.588907 -6.81807,16.190708 -8.33438,23.404582 -1.91233,9.097935 -1.922,28.96854 -0.0184,37.907305 1.60353,7.529956 5.61846,18.661626 8.81721,24.446364 l 2.13601,3.862821 -4.6259,0 c -4.49711,0 -4.70345,-0.11399 -7.41164,-4.094851 z m 118.8738,3.413184 c 0.15784,-0.37492 1.70909,-3.749219 3.44716,-7.498435 6.72972,-14.516538 8.98798,-26.618355 8.21075,-44.000567 -0.59647,-13.339258 -2.77696,-22.649631 -7.84179,-33.483236 l -3.71807,-7.9528865 4.57343,0 c 4.41261,0 4.66169,0.1358187 7.08432,3.8628275 13.85818,21.319637 16.70048,46.257996 7.91262,69.425314 -2.93514,7.737889 -4.98199,11.652981 -8.84612,16.92028 -2.2977,3.132084 -2.84934,3.40837 -6.80484,3.40837 -2.36747,0 -4.17532,-0.306756 -4.01746,-0.681667 z m -188.704871,-9.770685 0,-2.27225 25.830321,0 25.83033,0 0,2.27225 0,2.27225 -25.83033,0 -25.830321,0 0,-2.27225 z m 218.696741,0 0,-2.27225 25.83034,0 25.83031,0 0,2.27225 0,2.27225 -25.83031,0 -25.83034,0 0,-2.27225 z m -101.02457,-8.907917 -3.06848,-4.647413 5.73221,-2.581376 c 22.00972,-9.911605 35.8499,-28.181778 42.41767,-55.994834 l 2.00919,-8.508465 3.83988,0.555584 c 2.11192,0.305571 4.40103,0.555585 5.08689,0.555585 1.61359,0 0.94702,4.439509 -2.52392,16.809895 -7.56451,26.959805 -22.7305,46.017891 -44.34733,55.728317 l -6.07762,2.730112 -3.06849,-4.647405 z M 74.531428,74.050397 C 73.500295,71.176 68.084285,55.736048 62.49585,39.739388 56.907413,23.742735 51.913993,9.510342 51.399358,8.1118629 L 50.46366,5.5691749 55.704113,5.8396123 60.944567,6.1100498 71.646096,36.558233 C 77.531937,53.304732 83.299369,69.7672 84.462609,73.1415 l 2.11499,6.135076 -5.08569,0 -5.085694,0 -1.874787,-5.226179 z m 272.969472,4.64526 c 0,-0.543198 9.29261,-27.373049 20.49697,-59.179315 l 4.88269,-13.8607408 5.02402,0 c 3.72694,0 4.95215,0.3096212 4.74565,1.1992665 -0.15312,0.6595916 -5.89649,17.2217343 -12.76305,36.8047513 l -12.48466,35.605479 -4.95081,0.0056 c -2.72294,0.0035 -4.95081,-0.255672 -4.95081,-0.575176 z M 191.32315,39.96569 c -1.36801,-2.62394 -4.56451,-8.48741 -7.10334,-13.029934 -2.53881,-4.542518 -4.61603,-8.491454 -4.61603,-8.775416 0,-0.498812 7.23875,-5.233532 8.00135,-5.233532 0.86808,0 14.38494,24.718564 14.38494,26.306048 0,0.748389 -6.76484,5.507327 -7.82474,5.504566 -0.19519,-5.13e-4 -1.47415,-2.147791 -2.84218,-4.771732 z m 22.21642,-7.199338 c -2.04173,-4.254853 -7.85268,-14.755804 -11.2998,-20.419824 -1.10924,-1.822602 -0.91887,-2.115107 3.05705,-4.6975886 l 4.23992,-2.7539614 6.45942,11.514347 c 9.15816,16.325056 8.72864,15.15808 6.21086,16.874849 -7.0703,4.820945 -6.07714,4.880282 -8.66745,-0.517822 z M 9.9846563,12.017904 l 0,-3.6356037 15.8382647,0 15.838263,0 0.328442,3.6356037 0.328443,3.635604 -16.166707,0 -16.1667057,0 0,-3.635604 z m 381.9483237,0.227772 0.09,-3.40892 16.05393,-0.2472809 16.05393,-0.247281 0,3.6556529 0,3.655661 -16.14395,5.48e-4 -16.14395,5.41e-4 0.09,-3.408921 z"
     id="path3049"
     inkscape:connector-curvature="0" />
</svg>
